<svg width="40" height="64" viewBox="0 0 40 64" fill="none" xmlns="http://www.w3.org/2000/svg">
<path d="M37.1427 63.9217C37.142 63.9217 37.1417 63.9217 37.141 63.9217L16.3819 63.8422C16.1868 63.8413 16.0065 63.7197 15.9086 63.5218L0.888846 33.3123C-0.686144 30.0839 -0.123669 26.5984 2.22443 25.02C4.53136 23.4681 7.03756 24.5191 8.75649 27.7332C9.13807 28.4462 9.66963 29.4972 10.2992 30.7409C10.8839 31.8956 11.558 33.2279 12.2739 34.6096L9.23575 4.71573C9.23029 4.56863 9.21125 2.58524 10.3541 1.22351C11.0356 0.411803 11.9672 0 13.1222 0C16.313 0.0290573 17.199 2.65129 17.2282 4.03405L19.6488 26.6138C20.4698 20.547 21.9598 9.86465 23.0386 4.02405C23.5331 1.34302 24.5823 0.0940701 26.34 0.0940701C26.6104 0.0940701 26.8957 0.122352 27.213 0.180725C28.2874 0.379815 30.7202 1.34293 30.1134 5.97201C29.4832 10.7684 28.5188 17.3905 27.9235 21.2604C29.4448 19.9057 30.9681 20.1978 30.9688 20.1978C32.8398 20.4025 33.8165 21.8852 34.272 23.3833C34.7025 22.801 35.3464 22.3645 36.2803 22.3645C36.6531 22.3645 37.0592 22.4365 37.4887 22.5792C39.9507 23.3972 40.1619 26.2161 39.9266 27.6324L37.6917 63.3251C37.6702 63.6616 37.4308 63.9217 37.1427 63.9217ZM16.7013 62.5575L36.6319 62.6338L38.8313 27.4992C38.8334 27.4717 38.8368 27.4443 38.8412 27.4165C38.8612 27.3007 39.3085 24.5208 37.188 23.8161C36.8564 23.706 36.5513 23.6507 36.2802 23.6507C34.768 23.6507 34.6219 25.6437 34.6099 25.854C34.3836 28.3714 33.75 29.7978 33.4614 29.7772C33.1641 29.7649 32.6129 29.7772 33.4614 25.6385C33.4619 25.4787 33.4967 21.7664 30.8384 21.4751C30.6041 21.4396 28.7683 21.2739 27.4942 23.7558C26.6954 28.3114 26.6216 28.4407 25.847 27.9665C25.5519 27.7858 26.4317 23.6092 26.4824 23.3035C26.9432 20.5179 28.2428 11.7372 29.0257 5.77775C29.2569 4.01456 29.1005 1.83276 27.0409 1.45148C26.7813 1.40346 26.5517 1.38035 26.3399 1.38035C25.3264 1.38035 24.5602 1.87639 24.1139 4.29591C22.5651 12.6828 20.1578 31.1442 20.1333 31.3299C20.0925 31.6462 19.8809 31.8799 19.5824 31.8759C19.3078 31.8721 19.078 31.6312 19.0439 31.3131L16.132 4.12915C16.1194 3.78736 15.9607 1.3118 13.1575 1.2855C13.1571 1.2855 13.1568 1.2855 13.1568 1.2855C12.2766 1.2855 11.6114 1.56539 11.1447 2.11748C10.3251 3.08732 10.3316 4.6145 10.3319 4.62994L13.6612 37.3563C13.6915 37.6552 13.5408 37.9382 13.2979 38.0391C13.0571 38.1385 12.7861 38.0296 12.6487 37.7744C11.4481 35.5366 10.2863 33.2399 9.35239 31.3956C8.7289 30.1627 8.20176 29.1215 7.82395 28.4145C6.42167 25.7927 4.57629 24.9194 2.77311 26.1337C0.94639 27.3627 0.563784 30.0502 1.84219 32.6707L16.7013 62.5575Z" fill="#133C55"/>
</svg>
