<svg xmlns:xlink="http://www.w3.org/1999/xlink" xmlns="http://www.w3.org/2000/svg" aria-hidden="true" focusable="false" role="presentation" class="icon icon-instagram" viewBox="0 0 14 14" width="15"  height="15" ><path d="M7.002 9.572A2.575 2.575 0 0 1 4.43 7a2.575 2.575 0 0 1 2.572-2.572 2.575 2.575 0 0 1 2.571 2.572 2.575 2.575 0 0 1-2.571 2.573zm0-6.104a3.536 3.536 0 0 0-3.534 3.531 3.537 3.537 0 0 0 3.534 3.534A3.537 3.537 0 0 0 10.535 7a3.536 3.536 0 0 0-3.533-3.531zm4.391.249c-.29.288-.812.288-1.098 0a.783.783 0 0 1-.228-.55.78.78 0 0 1 .777-.776.779.779 0 0 1 .777.777.782.782 0 0 1-.228.549zm1.648 6.488a2.837 2.837 0 0 1-2.834 2.835H3.796a2.837 2.837 0 0 1-2.834-2.835V3.794A2.837 2.837 0 0 1 3.796.96h6.411a2.837 2.837 0 0 1 2.834 2.834v6.411zM10.207 0H3.796A3.799 3.799 0 0 0 0 3.794v6.411A3.8 3.8 0 0 0 3.796 14h6.411a3.8 3.8 0 0 0 3.796-3.795V3.794A3.799 3.799 0 0 0 10.207 0z" fill="#133c55" fill-rule="evenodd"></path></svg>